<?xml version="1.0" encoding="utf-8"?>
<!-- Generator: Adobe Illustrator 19.0.0, SVG Export Plug-In . SVG Version: 6.00 Build 0)  -->
<svg version="1.1" id="Laag_1" xmlns="http://www.w3.org/2000/svg" xmlns:xlink="http://www.w3.org/1999/xlink" x="0px" y="0px"
	 viewBox="0 0 121.7 121.7" style="enable-background:new 0 0 121.7 121.7;" xml:space="preserve">
<style type="text/css">
	.st0{fill:#FFFFFF;}
</style>
<g>
	<path class="st0" d="M104,60.9c0,23.8-19.3,43.1-43.1,43.1c-13.7,0-25.8-6.3-33.7-16.2c0.8-0.2,1.6-0.4,2.5-0.6
		c3.1-0.9,5.9-2.6,8.4-4.9c2.5-2.3,4.6-5.4,6.3-9.4C46,69,47,64,47.4,58.1c0.2-2.4,0.4-4.9,0.6-7.4c0.2-2.5,0.5-4.9,0.9-7.3
		c0.4-2.3,0.9-4.6,1.6-6.6c0.7-2.1,1.6-3.9,2.7-5.5c1.1-1.6,2.4-2.8,4-3.7c1.6-0.9,3.5-1.3,5.8-1.3c1.7,0,3.1,0.5,4.4,1.5
		c1.2,1,1.8,2.6,1.8,4.7c0,1.4-0.2,2.6-0.5,3.5c-0.3,0.9-0.8,1.9-1.4,2.9c1.8,0,3.4-0.5,4.7-1.4c1.3-0.9,2-2.3,2-4.2
		c0-2.4-1-4.3-2.9-5.8c-1.9-1.5-4.4-2.2-7.5-2.2c-3.4,0-6.5,0.8-9.1,2.3c-2.6,1.6-4.8,3.8-6.6,6.7c-1.8,2.9-3.1,6.4-4.1,10.5
		c-1,4.1-1.5,8.8-1.5,13.9c-0.1,3.2-0.5,6.5-1.2,9.9c-0.8,3.4-2,6.5-3.7,9.4c-1.7,2.8-3.9,5.1-6.6,6.9c-1.3,0.9-2.8,1.5-4.4,2
		c-5.4-7.2-8.6-16.2-8.6-25.9C17.7,37,37,17.7,60.9,17.7c10.1,0,19.4,3.5,26.8,9.3l-1.2,0c-0.1,0.2-0.3,0.4-0.4,0.6
		c-4.3,6.6-8.2,12.3-11.4,17.2c-3.4,5.1-6.2,9.5-8.6,13.1c-2.4,3.7-4.3,6.8-5.9,9.3c-1.5,2.5-2.7,4.6-3.6,6.3
		c-0.9,1.7-1.5,3.1-1.8,4.2C54.4,79,54.2,80,54.2,81c0,2.2,0.7,3.9,2.1,5.1c1.4,1.2,3.1,1.8,5.2,1.8c2.5,0,5.1-0.6,7.7-1.9
		s5.1-2.9,7.5-4.9c2.3-2,4.4-4.2,6.2-6.7c1.8-2.5,3-4.9,3.8-7.3c1,0.8,2.1,1.5,3.2,2c1.2,0.5,2.4,0.7,3.7,0.7c1.9,0,3.7-0.5,5.2-1.5
		c0.9-0.6,1.7-1.2,2.4-1.8c0.5-0.5,1-1,1.4-1.4l-0.6-0.6c-0.2,0.2-0.4,0.5-0.6,0.7c-0.9,1-1.9,1.8-3,2.5c-1.4,0.9-3,1.3-4.6,1.3
		c-1.5,0-2.9-0.3-4.1-1c-1.2-0.6-2.1-1.3-2.6-2c0.2-1.2,0.3-2.4,0.3-3.8c0-1.7-0.3-3-0.8-4.1c-0.6-1.1-1.3-1.6-2.3-1.6
		c-0.9,0-1.5,0.3-1.9,0.8c-0.4,0.6-0.6,1.2-0.6,2c0,0.7,0.1,1.3,0.4,2c0.3,0.6,0.4,1.2,0.4,1.9c0,1.9-0.7,4.2-2.1,6.9
		c-1.4,2.7-3.1,5.2-5.1,7.7c-2,2.5-4.2,4.6-6.7,6.4c-2.4,1.7-4.6,2.6-6.7,2.6c-1.1,0-2-0.4-2.7-1.1c-0.7-0.7-1-1.7-1-2.8
		c0-0.9,0.1-1.8,0.4-2.7c0.3-1,0.8-2.2,1.7-3.8c0.8-1.6,2-3.6,3.5-6c1.5-2.4,3.6-5.6,6.1-9.4c2.5-3.9,5.6-8.6,9.2-14.1
		c3-4.5,6.4-9.8,10.3-15.8c0.3-0.5,0.6-1,0.9-1.5C98.8,37.4,104,48.5,104,60.9z"/>
</g>
<g>
	<g>
		<path class="st0" d="M91.9,26.9c0.1,0.1,0.2,0.1,0.2,0.2c0-0.1,0.1-0.2,0.1-0.2L91.9,26.9z"/>
	</g>
</g>
<g>
	<path class="st0" d="M91.9,26.9c0.1,0.1,0.2,0.1,0.2,0.2c0-0.1,0.1-0.2,0.1-0.2L91.9,26.9z"/>
	<path class="st0" d="M95.5,26.2c-0.1-0.1-0.3-0.3-0.4-0.3c-9.2-9-21.4-14-34.3-14c-27,0-49,22-49,49c0,9.5,2.7,18.7,7.9,26.6
		c0.2,0.3,0.3,0.5,0.5,0.8c0.1,0.1,0.1,0.2,0.2,0.2c0.2,0.3,0.4,0.6,0.6,0.9c9.2,12.8,24.1,20.4,39.8,20.4c27,0,49-22,49-49
		C109.8,47.8,104.7,35.5,95.5,26.2z M60.9,106.8c-14.5,0-28.2-6.9-36.9-18.5c-0.2-0.2-0.3-0.4-0.5-0.7c-0.1-0.1-0.1-0.2-0.2-0.3
		c-0.2-0.2-0.4-0.5-0.5-0.8c-5.1-7.6-7.9-16.5-7.9-25.7c0-25.3,20.6-46,46-46c11.6,0,22.5,4.2,31,12l0.4,0c0,0.1-0.1,0.2-0.1,0.2
		c0.3,0.3,0.6,0.6,1,0.9c0.1,0.1,0.2,0.2,0.3,0.3c8.7,8.7,13.5,20.2,13.5,32.5C106.8,86.2,86.2,106.8,60.9,106.8z"/>
</g>
</svg>
